<svg width="24" height="24" viewBox="0 0 24 24" fill="none" xmlns="http://www.w3.org/2000/svg">
<path d="M16.8 13.0792V18.1192C16.8 22.3192 15.12 23.9992 10.92 23.9992H5.88C1.68 23.9992 0 22.3192 0 18.1192V13.0792C0 8.87922 1.68 7.19922 5.88 7.19922H10.92C15.12 7.19922 16.8 8.87922 16.8 13.0792Z" fill="white"/>
<path d="M18.1197 0H13.0797C9.38 0 7.64488 1.31291 7.2834 4.48681C7.20778 5.15082 7.7577 5.7 8.42599 5.7H10.9197C15.9597 5.7 18.2997 8.04 18.2997 13.08V15.5737C18.2997 16.242 18.8489 16.792 19.5129 16.7164C22.6868 16.3548 23.9997 14.6197 23.9997 10.92V5.88C23.9997 1.68 22.3197 0 18.1197 0Z" fill="white"/>
</svg>
