<svg width="27" height="27" viewBox="0 0 27 27" fill="none" xmlns="http://www.w3.org/2000/svg">
<g clip-path="url(#clip0_2004_2672)">
<path d="M21.375 15.75V6.75C21.375 5.5125 20.3625 4.5 19.125 4.5H3.375C2.1375 4.5 1.125 5.5125 1.125 6.75V15.75C1.125 16.9875 2.1375 18 3.375 18H19.125C20.3625 18 21.375 16.9875 21.375 15.75ZM11.25 14.625C9.3825 14.625 7.875 13.1175 7.875 11.25C7.875 9.3825 9.3825 7.875 11.25 7.875C13.1175 7.875 14.625 9.3825 14.625 11.25C14.625 13.1175 13.1175 14.625 11.25 14.625ZM25.875 7.875V20.25C25.875 21.4875 24.8625 22.5 23.625 22.5H4.5V20.25H23.625V7.875H25.875Z" fill="white"/>
</g>
<defs>
<clipPath id="clip0_2004_2672">
<rect width="27" height="27" fill="white"/>
</clipPath>
</defs>
</svg>
