<svg width="17" height="19" viewBox="0 0 17 19" fill="none" xmlns="http://www.w3.org/2000/svg">
<path fill-rule="evenodd" clip-rule="evenodd" d="M11.6004 19.0001H4.60565C3.39952 19.0001 2.50044 18.153 2.41099 17.1243L1.22474 3.50829C1.19627 3.18126 1.53876 2.91199 1.92236 2.91199H14.2839C14.6675 2.91199 15.01 3.18189 14.9815 3.50829L13.7953 17.1243C13.7058 18.1521 12.8057 19.0001 11.6006 19.0001H11.6004ZM5.85582 16.7386C5.58451 16.7527 5.34705 16.5421 5.32824 16.27L4.6583 6.56918C4.63949 6.29739 4.84633 6.06326 5.11764 6.04883C5.38895 6.0347 5.62642 6.24529 5.64522 6.51739L6.31517 16.2182C6.33397 16.49 6.12713 16.7241 5.85582 16.7386ZM8.07546 16.7486C7.80362 16.7486 7.5812 16.5255 7.5812 16.2531V6.53465C7.5812 6.26193 7.80362 6.0391 8.07546 6.0391C8.34731 6.0391 8.56973 6.26224 8.56973 6.53465V16.2531C8.56973 16.5258 8.34731 16.7486 8.07546 16.7486ZM10.2951 16.7386C10.5664 16.7527 10.8039 16.5421 10.8227 16.27L11.4924 6.56918C11.5112 6.29739 11.3046 6.06326 11.033 6.04883C10.7617 6.03439 10.5242 6.24529 10.5054 6.51739L9.83576 16.2182C9.81695 16.49 10.0235 16.7241 10.2951 16.7386Z" fill="#EE2726"/>
<path fill-rule="evenodd" clip-rule="evenodd" d="M5.01165 3.59548H5.71195V1.73472C5.71195 1.33144 5.99454 1.00127 6.33973 1.00127H9.87213C10.2173 1.00127 10.4999 1.33144 10.4999 1.73472V3.59548H11.2002C11.2862 3.59548 11.3566 3.51326 11.3566 3.41283V1.7978C11.3566 0.809204 10.664 0.00012207 9.81787 0.00012207H6.39372C5.54755 0.00012207 4.85504 0.809204 4.85504 1.7978V3.41283C4.85504 3.51326 4.92542 3.59548 5.01138 3.59548H5.01165Z" fill="#EE2726"/>
<rect x="16.1494" y="2.37512" width="1.15582" height="16.1497" rx="0.577909" transform="rotate(90 16.1494 2.37512)" fill="#EE2726"/>
</svg>
