<svg width="24" height="24" viewBox="0 0 24 24" fill="none" xmlns="http://www.w3.org/2000/svg">
<g clip-path="url(#clip0_1_695)">
<path d="M3 11C3 12.1046 3.89543 13 5 13H9C10.1046 13 11 12.1046 11 11V5C11 3.89543 10.1046 3 9 3H5C3.89543 3 3 3.89543 3 5V11ZM3 19C3 20.1046 3.89543 21 5 21H9C10.1046 21 11 20.1046 11 19V17C11 15.8954 10.1046 15 9 15H5C3.89543 15 3 15.8954 3 17V19ZM13 19C13 20.1046 13.8954 21 15 21H19C20.1046 21 21 20.1046 21 19V13C21 11.8954 20.1046 11 19 11H15C13.8954 11 13 11.8954 13 13V19ZM15 3C13.8954 3 13 3.89543 13 5V7C13 8.10457 13.8954 9 15 9H19C20.1046 9 21 8.10457 21 7V5C21 3.89543 20.1046 3 19 3H15Z" fill="#fff"/>
</g>
<defs>
<clipPath id="clip0_1_695">
<rect width="24" height="24" fill="white"/>
</clipPath>
</defs>
</svg>
