<svg width="23" height="17" viewBox="0 0 23 17" fill="none" xmlns="http://www.w3.org/2000/svg">
<path fill-rule="evenodd" clip-rule="evenodd" d="M5.01482 15.4894C5.1485 14.7917 4.44363 14.268 4.04776 13.7726C1.54148 10.636 1.62005 6.47273 3.66254 3.18533C3.85235 2.87974 4.03473 2.60597 4.27852 2.33947C4.62509 1.96089 5.04262 1.5687 5.04262 1.1424C5.04262 0.00305596 3.77482 -0.962016 1.98133 1.75877C1.46954 2.53506 1.01525 3.41889 0.697944 4.29147C-0.183002 6.71411 -0.243216 9.49691 0.592665 11.9408C1.05054 13.2795 2.37454 15.7427 3.75972 16.356C4.38592 16.6334 4.904 16.067 5.01477 15.4894L5.01482 15.4894Z" fill="#909090"/>
<path fill-rule="evenodd" clip-rule="evenodd" d="M6.36722 12.3682C7.43559 13.3264 8.80623 12.2439 7.89341 10.9446C7.50167 10.3868 7.25022 10.0637 7.09032 9.74754C6.67784 8.93221 6.71411 7.28912 7.17655 6.46983C7.5356 5.83359 8.65594 4.95785 8.07378 4.19098C7.87701 3.93167 7.52952 3.69565 6.98374 3.69565C6.35728 3.69565 5.66751 4.71508 5.21572 5.81484C4.91666 6.54299 4.74818 7.35746 4.72912 8.17777C4.69285 9.73709 5.19622 11.3178 6.36722 12.3682V12.3682Z" fill="#909090"/>
<path d="M11.5136 10.2424C12.6751 10.2424 13.6167 9.31363 13.6167 8.16796C13.6167 7.02229 12.6751 6.09354 11.5136 6.09354C10.3521 6.09354 9.41052 7.02229 9.41052 8.16796C9.41052 9.31363 10.3521 10.2424 11.5136 10.2424Z" fill="#909090"/>
<path fill-rule="evenodd" clip-rule="evenodd" d="M18.0321 15.6684C17.7585 14.8534 18.4713 14.3744 18.9523 13.7725C21.4585 10.6359 21.3799 6.47264 19.3375 3.18524C19.1477 2.87965 18.9653 2.60587 18.7215 2.33938C18.3749 1.9608 17.9574 1.56861 17.9574 1.14231C17.9574 0.00296441 19.2252 -0.962107 21.0187 1.75868C21.5305 2.53497 21.9848 3.41879 22.3021 4.29138C23.183 6.71402 23.2432 9.49682 22.4074 11.9407C21.9565 13.259 20.6656 15.6678 19.3035 16.3266C18.7175 16.6099 18.2252 16.2434 18.0321 15.6684H18.0321Z" fill="#909090"/>
<path fill-rule="evenodd" clip-rule="evenodd" d="M16.6325 12.3682C15.5641 13.3264 14.1935 12.2439 15.1063 10.9446C15.4981 10.3868 15.7495 10.0637 15.9094 9.74754C16.3219 8.93221 16.2857 7.28912 15.8232 6.46983C15.5043 5.90482 14.457 5.00369 14.8377 4.32535C15.0094 4.01955 15.3765 3.69565 16.0159 3.69565C16.6424 3.69565 17.3322 4.71508 17.7839 5.81484C18.083 6.54299 18.2515 7.35746 18.2705 8.17777C18.3068 9.73709 17.8034 11.3178 16.6324 12.3682L16.6325 12.3682Z" fill="#909090"/>
</svg>
