<svg width="24" height="24" viewBox="0 0 24 24" fill="none" xmlns="http://www.w3.org/2000/svg">
<path d="M12 23C12.7523 23 13.4064 22.5837 13.7447 21.9687C14.0109 21.4848 13.5423 21.01 12.99 21.01H11.01C10.4577 21.01 9.9891 21.4848 10.2553 21.9687C10.5936 22.5837 11.2477 23 12 23ZM19.2929 17.2929C19.1054 17.1054 19 16.851 19 16.5858V11C19 7.93251 17.0213 5.32616 14.2768 4.38632C13.8315 4.23382 13.5 3.8341 13.5 3.36338V2.5C13.5 1.94772 13.0523 1.5 12.5 1.5H11.5C10.9477 1.5 10.5 1.94772 10.5 2.5V3.36338C10.5 3.8341 10.1685 4.23382 9.72319 4.38632C6.97874 5.32616 5 7.93251 5 11V16.5858C5 16.851 4.89464 17.1054 4.70711 17.2929L3.20711 18.7929C3.0745 18.9255 3 19.1054 3 19.2929C3 19.6834 3.31658 20 3.70711 20H20.2929C20.6834 20 21 19.6834 21 19.2929C21 19.1054 20.9255 18.9255 20.7929 18.7929L19.2929 17.2929ZM13 15C13 15.5523 12.5523 16 12 16C11.4477 16 11 15.5523 11 15C11 14.4477 11.4477 14 12 14C12.5523 14 13 14.4477 13 15ZM13 11C13 11.5523 12.5523 12 12 12C11.4477 12 11 11.5523 11 11V9C11 8.44772 11.4477 8 12 8C12.5523 8 13 8.44772 13 9V11Z" fill="white"/>
</svg>
