<svg width="24" height="24" viewBox="0 0 24 24" fill="none" xmlns="http://www.w3.org/2000/svg">
<path d="M19.881 13.5225C19.4218 13.1615 19.2 12.5842 19.2 12C19.2 11.4186 19.4158 10.8375 19.8747 10.4804L21.16 9.48002C21.34 9.34002 21.39 9.07002 21.28 8.87002L19.36 5.55002C19.24 5.33002 18.99 5.26002 18.77 5.33002L17.2456 5.94235C16.7087 6.158 16.1082 6.06377 15.6093 5.77078C15.1044 5.47426 14.7094 4.99341 14.6273 4.41368L14.4 2.81002C14.36 2.57002 14.16 2.40002 13.92 2.40002H10.08C9.83999 2.40002 9.64999 2.57002 9.60999 2.81002L9.38292 4.4121C9.30062 4.99281 8.90071 5.47758 8.39545 5.77542C7.89776 6.06879 7.30219 6.15836 6.7661 5.94302L5.23999 5.33002C5.01999 5.25002 4.76999 5.33002 4.64999 5.55002L2.73999 8.87002C2.61999 9.08002 2.65999 9.34002 2.85999 9.48002L4.14397 10.4794C4.60362 10.8371 4.79999 11.4176 4.79999 12C4.79999 12.5814 4.58414 13.1625 4.12533 13.5196L2.83999 14.52C2.65999 14.66 2.60999 14.93 2.71999 15.13L4.63999 18.45C4.75999 18.67 5.00999 18.74 5.22999 18.67L6.75442 18.0577C7.2913 17.842 7.8918 17.9363 8.39069 18.2293C8.89559 18.5258 9.29053 19.0066 9.3727 19.5864L9.59999 21.19C9.64999 21.43 9.83999 21.6 10.08 21.6H13.92C14.16 21.6 14.36 21.43 14.39 21.19L14.618 19.5813C14.6997 19.0047 15.0955 18.5255 15.5985 18.232C16.1004 17.9391 16.7014 17.8432 17.2407 18.0597L18.76 18.67C18.98 18.75 19.23 18.67 19.35 18.45L21.27 15.13C21.39 14.91 21.34 14.66 21.15 14.52L19.881 13.5225ZM12 15.6C10.02 15.6 8.39999 13.98 8.39999 12C8.39999 10.02 10.02 8.40002 12 8.40002C13.98 8.40002 15.6 10.02 15.6 12C15.6 13.98 13.98 15.6 12 15.6Z" fill="#909090"/>
</svg>
