<svg width="26" height="24" viewBox="0 0 26 24" fill="none" xmlns="http://www.w3.org/2000/svg">
<path d="M13.404 1.06545L23.2222 4.99269C23.604 5.14542 23.9095 5.6036 23.9095 6.00724V9.6291C23.9095 10.2291 23.4186 10.72 22.8186 10.72H3.18222C2.58222 10.72 2.09131 10.2291 2.09131 9.6291V6.00724C2.09131 5.6036 2.39676 5.14542 2.77858 4.99269L12.5968 1.06545C12.8149 0.978182 13.1859 0.978182 13.404 1.06545Z" stroke="#909090" stroke-width="2" stroke-miterlimit="10" stroke-linecap="round" stroke-linejoin="round"/>
<path d="M23.9095 22.7269H2.09131V19.4542C2.09131 18.8542 2.58222 18.3633 3.18222 18.3633H22.8186C23.4186 18.3633 23.9095 18.8542 23.9095 19.4542V22.7269Z" stroke="#909090" stroke-width="2" stroke-miterlimit="10" stroke-linecap="round" stroke-linejoin="round"/>
<path d="M4.27319 18.3629V10.7266" stroke="#909090" stroke-width="2" stroke-miterlimit="10" stroke-linecap="round" stroke-linejoin="round"/>
<path d="M8.63623 18.3629V10.7266" stroke="#909090" stroke-width="2" stroke-miterlimit="10" stroke-linecap="round" stroke-linejoin="round"/>
<path d="M12.9998 18.3629V10.7266" stroke="#909090" stroke-width="2" stroke-miterlimit="10" stroke-linecap="round" stroke-linejoin="round"/>
<path d="M17.3638 18.3629V10.7266" stroke="#909090" stroke-width="2" stroke-miterlimit="10" stroke-linecap="round" stroke-linejoin="round"/>
<path d="M21.7268 18.3629V10.7266" stroke="#909090" stroke-width="2" stroke-miterlimit="10" stroke-linecap="round" stroke-linejoin="round"/>
<path d="M1 22.7266H25" stroke="#909090" stroke-width="2" stroke-miterlimit="10" stroke-linecap="round" stroke-linejoin="round"/>
<path d="M13.0001 7.99929C13.9038 7.99929 14.6365 7.26667 14.6365 6.36293C14.6365 5.45918 13.9038 4.72656 13.0001 4.72656C12.0964 4.72656 11.3638 5.45918 11.3638 6.36293C11.3638 7.26667 12.0964 7.99929 13.0001 7.99929Z" stroke="#909090" stroke-width="2" stroke-miterlimit="10" stroke-linecap="round" stroke-linejoin="round"/>
</svg>
